<svg width="120" height="120" viewBox="0 0 120 120" fill="none" xmlns="http://www.w3.org/2000/svg">
  <!-- Background Circle -->
  <circle cx="60" cy="60" r="58" fill="url(#gradient)" stroke="currentColor" stroke-width="2"/>
  
  <!-- Gradient Definition -->
  <defs>
    <linearGradient id="gradient" x1="0%" y1="0%" x2="100%" y2="100%">
      <stop offset="0%" style="stop-color:rgb(239,68,68);stop-opacity:0.2" />
      <stop offset="100%" style="stop-color:rgb(239,68,68);stop-opacity:0.05" />
    </linearGradient>
  </defs>
  
  <!-- Medical Plus Symbol (Larger) -->
  <rect x="51" y="30" width="18" height="60" rx="3" fill="currentColor"/>
  <rect x="30" y="51" width="60" height="18" rx="3" fill="currentColor"/>
  
  <!-- Wings (Left Side) -->
  <path d="M 24 60 Q 8 45, 8 60 Q 8 75, 24 60 Z" fill="currentColor" opacity="0.7"/>
  <path d="M 22 60 Q 10 50, 10 60 Q 10 70, 22 60 Z" fill="currentColor" opacity="0.5"/>
  <path d="M 20 60 Q 12 53, 12 60 Q 12 67, 20 60 Z" fill="currentColor" opacity="0.3"/>
  
  <!-- Wings (Right Side) -->
  <path d="M 96 60 Q 112 45, 112 60 Q 112 75, 96 60 Z" fill="currentColor" opacity="0.7"/>
  <path d="M 98 60 Q 110 50, 110 60 Q 110 70, 98 60 Z" fill="currentColor" opacity="0.5"/>
  <path d="M 100 60 Q 108 53, 108 60 Q 108 67, 100 60 Z" fill="currentColor" opacity="0.3"/>
  
  <!-- Wing Details (Feather Lines) -->
  <line x1="15" y1="55" x2="20" y2="58" stroke="currentColor" stroke-width="1.5" opacity="0.4"/>
  <line x1="15" y1="60" x2="20" y2="60" stroke="currentColor" stroke-width="1.5" opacity="0.4"/>
  <line x1="15" y1="65" x2="20" y2="62" stroke="currentColor" stroke-width="1.5" opacity="0.4"/>
  
  <line x1="105" y1="55" x2="100" y2="58" stroke="currentColor" stroke-width="1.5" opacity="0.4"/>
  <line x1="105" y1="60" x2="100" y2="60" stroke="currentColor" stroke-width="1.5" opacity="0.4"/>
  <line x1="105" y1="65" x2="100" y2="62" stroke="currentColor" stroke-width="1.5" opacity="0.4"/>
  
  <!-- Center Highlight -->
  <circle cx="60" cy="60" r="10" fill="currentColor" opacity="0.9"/>
  <circle cx="60" cy="60" r="6" fill="white" opacity="0.3"/>
  
  <!-- Motion Lines (Speed Effect) -->
  <path d="M 60 25 L 58 30 L 62 30 Z" fill="currentColor" opacity="0.4"/>
  <path d="M 60 95 L 58 90 L 62 90 Z" fill="currentColor" opacity="0.4"/>
  <path d="M 25 60 L 30 58 L 30 62 Z" fill="currentColor" opacity="0.4"/>
  <path d="M 95 60 L 90 58 L 90 62 Z" fill="currentColor" opacity="0.4"/>
</svg>